PathFileType	4	(X/Y/Z)	C:/ViconProjects/foot_20160225/trc/P_3_test01_dynamic.trc
DataRate	CameraRate	NumFrames	NumMarkers	Units	OrigDataRate	OrigDataStartFrame	OrigNumFrames
120.000000	120.000000	8	39	mm	120.000000	1710	1954
Frame#	Time	LFWT			RFWT			VBWT			LKNE			LANK			LMT5			LMT1			LHEL			LTOE			RKNE			RANK			RMT5			RMT1			RHEL			RTOE			T10			FHEAD			THEAD			RHEAD			LBSH			LELB			LOWR			RBSH			RELB			ROWR			LTHI			RTHI			LSHAN			RSHAN			LIHEL			LOHEL			RIHEL			ROHEL			LMT3			LNAVI			LCUNE			RMT3			RNAVI			RCUNE			
		X0	Y0	Z0	X1	Y1	Z1	X2	Y2	Z2	X3	Y3	Z3	X4	Y4	Z4	X5	Y5	Z5	X6	Y6	Z6	X7	Y7	Z7	X8	Y8	Z8	X9	Y9	Z9	X10	Y10	Z10	X11	Y11	Z11	X12	Y12	Z12	X13	Y13	Z13	X14	Y14	Z14	X15	Y15	Z15	X16	Y16	Z16	X17	Y17	Z17	X18	Y18	Z18	X19	Y19	Z19	X20	Y20	Z20	X21	Y21	Z21	X22	Y22	Z22	X23	Y23	Z23	X24	Y24	Z24	X25	Y25	Z25	X26	Y26	Z26	X27	Y27	Z27	X28	Y28	Z28	X29	Y29	Z29	X30	Y30	Z30	X31	Y31	Z31	X32	Y32	Z32	X33	Y33	Z33	X34	Y34	Z34	X35	Y35	Z35	X36	Y36	Z36	X37	Y37	Z37	X38	Y38	Z38	
1710	14.250000	-310.891330	149.931180	949.525210	-336.143400	-138.089230	953.586300	-546.634090	27.820070	944.842710	-311.816220	171.150210	470.515560	-392.356350	171.170620	62.987840	-294.623720	197.911590	58.046250	-242.096390	136.390990	80.881130	-449.926030	110.230640	32.024440	-211.875270	152.497710	83.168560	-338.559020	-169.003650	469.766200	-399.679870	-166.402180	72.593100	-296.879610	-205.221850	56.485460	-246.964810	-141.547380	87.359890	-449.749970	-95.613260	31.683620	-210.274580	-161.826860	85.657140	-506.624510	81.591000	1302.280030	-142.629580	-5.561520	1576.698240	-217.550090	-2.215690	1695.347900	-343.003540	9.332340	1668.258060	-333.126740	213.857470	1438.533940	-550.814150	336.132200	1226.600100	-687.323910	366.536410	1003.753780	-363.809910	-187.675930	1437.768430	-595.515380	-276.985320	1224.816650	-743.514710	-299.722200	1001.637080	-245.033190	113.573500	637.711060	-268.464810	-126.286820	587.575930	-306.765810	97.160350	326.107270	-332.624360	-99.373470	237.504070	-412.101140	80.202780	39.217610	-425.935970	151.497240	36.341300	-405.730960	-73.198990	41.527770	-429.667480	-144.020130	37.360300	-255.643040	175.248720	73.773200	-332.644470	85.154260	62.927130	-353.109470	186.090650	42.754810	-257.322240	-175.591930	76.555260	-336.412170	-88.441670	70.708660	-358.208650	-184.947430	43.383900
1711	14.258333	-310.629300	150.317110	949.459780	-336.170350	-137.791340	952.802800	-546.639770	29.026820	944.882750	-311.628780	171.440050	470.169430	-392.287690	171.045610	62.880110	-294.537690	197.600560	58.115620	-242.092250	135.973360	80.791450	-449.983250	110.265500	31.987510	-211.781460	152.107450	82.960980	-336.656520	-168.791110	469.383360	-398.542050	-166.072740	72.674240	-295.234950	-204.093990	55.443520	-246.351360	-139.991740	86.891760	-449.562230	-95.663930	32.017060	-208.937130	-159.710660	84.762860	-506.684720	82.965810	1301.833010	-143.525310	-4.259170	1577.461550	-218.772540	-1.309400	1695.559810	-344.377780	10.332620	1668.017460	-332.596710	215.022930	1436.310550	-546.703920	336.444030	1219.959350	-680.079650	364.734920	994.712590	-363.816250	-187.236470	1436.808110	-592.626530	-275.851680	1219.492310	-736.984310	-297.286590	994.046200	-244.692410	113.329730	636.987300	-266.765630	-125.048510	587.816220	-306.746490	96.985340	325.740970	-331.632390	-98.833820	237.209380	-411.227510	80.119030	38.301610	-425.855680	151.501650	36.293690	-405.435150	-73.108420	41.609130	-429.044860	-143.904950	37.562950	-255.643080	174.864670	73.673320	-332.731540	84.854280	62.725170	-352.962830	185.832430	42.650380	-255.630420	-173.771680	75.549660	-335.797640	-88.019160	70.508560	-357.307740	-184.130690	42.876730
1712	14.266667	-309.916990	150.779570	949.566830	-336.841000	-137.475770	952.215090	-545.846740	30.351120	944.774110	-311.047330	171.720470	470.045780	-392.136600	171.040040	62.913550	-294.622440	197.368590	58.215600	-241.942150	135.459180	80.555470	-450.014800	110.366070	31.981730	-211.398320	151.450240	82.565140	-333.658940	-167.365020	468.610170	-396.945220	-165.799550	72.684810	-293.318880	-202.879490	54.390010	-245.158550	-138.631790	85.919820	-449.300080	-95.757480	32.287430	-207.213180	-157.684130	83.647570	-506.423710	84.144780	1301.101440	-144.440890	-3.197440	1578.078610	-220.091250	0.027150	1696.049190	-345.731350	11.286290	1667.809330	-332.352420	216.462310	1435.648560	-542.099180	336.775300	1213.085330	-671.045840	363.025240	985.478580	-363.962010	-186.851840	1435.500850	-589.060790	-275.244540	1213.389890	-729.591920	-295.063690	985.186710	-244.628660	113.078920	636.317080	-265.450960	-123.923900	588.137510	-306.564300	96.831590	325.538700	-330.390290	-98.221350	237.126530	-411.322020	80.036150	38.180920	-425.726230	151.544250	36.279950	-405.077390	-72.930880	41.598160	-428.053860	-143.958420	37.271180	-255.595600	174.366850	73.568630	-333.052830	84.385500	62.565540	-352.799100	185.644780	42.670560	-254.709870	-172.566650	74.811870	-335.297180	-87.348320	70.284260	-356.081390	-183.464650	42.351600
1713	14.275000	-308.918150	151.319310	949.584110	-337.170040	-136.954390	951.643550	-545.592830	31.472460	944.592710	-310.253230	171.568850	469.924770	-391.863980	171.125430	62.876970	-294.301760	196.935010	58.171620	-241.565860	134.720840	80.298360	-449.960720	110.503250	31.989900	-211.290470	150.749530	82.390420	-331.938110	-167.253780	468.164370	-395.636470	-165.239490	72.548400	-291.915410	-201.660430	53.800670	-244.159870	-136.455520	85.367860	-448.794620	-95.836140	32.442470	-206.232450	-154.868710	82.834840	-507.039890	84.892390	1300.303340	-145.766750	-2.231200	1578.660640	-221.245100	0.870560	1696.248540	-347.000640	12.199310	1667.799800	-332.041600	217.932270	1433.873050	-537.010070	336.995610	1205.751710	-661.721070	360.372070	975.615780	-364.415770	-186.889100	1434.125120	-585.314880	-274.670530	1207.345830	-721.328430	-292.739720	975.956910	-243.665540	112.933990	635.665280	-264.265440	-122.620220	588.545350	-305.975980	96.556060	325.400390	-329.763460	-97.454080	236.867050	-411.463900	80.089690	38.175330	-425.643040	151.634800	36.290590	-404.982600	-72.685260	41.645280	-427.371190	-144.076900	37.295250	-255.733930	173.882170	73.957580	-333.160950	84.045540	62.499110	-352.500000	185.395390	42.686330	-253.114030	-170.384610	74.466170	-335.149930	-86.113490	70.170010	-354.978360	-182.954540	42.040960
1714	14.283333	-308.230500	151.623550	949.680970	-336.843780	-136.453890	951.369450	-545.325070	32.356340	944.344480	-308.932500	171.377460	469.727290	-391.440520	171.174870	62.753540	-293.893070	196.409270	58.077400	-241.596660	134.282320	80.278650	-449.902130	110.690270	31.943030	-211.030640	150.128370	82.180530	-331.215060	-166.502780	468.129940	-394.879090	-164.892330	72.615390	-290.732240	-199.657030	53.233680	-243.900880	-134.564270	84.878720	-448.445770	-96.101750	32.600580	-205.346530	-152.500930	81.800300	-506.893830	85.834180	1299.536010	-146.375430	-1.271730	1579.502690	-223.109790	2.222920	1696.380370	-348.316350	13.279860	1667.956790	-332.203030	218.762510	1432.109990	-531.448430	337.364840	1198.100220	-651.057920	357.866330	964.909790	-364.907530	-186.609040	1432.961060	-581.339420	-274.233610	1200.617310	-711.528810	-290.330780	966.033450	-243.243380	112.641140	635.552060	-263.538540	-121.396260	588.946230	-305.671300	96.301690	325.340640	-329.270080	-96.635790	236.633510	-411.519100	80.149790	38.222380	-425.553380	151.604830	36.380090	-404.949160	-72.443260	41.640070	-427.063570	-144.208100	37.634400	-255.309370	173.471020	73.732820	-333.164460	83.845430	62.446740	-352.331630	185.154680	42.650420	-252.209210	-168.651170	73.368380	-335.253270	-85.324480	70.104580	-353.729550	-182.068570	41.508690
1715	14.291667	-308.125180	151.750850	949.603820	-336.601720	-136.168110	951.304870	-544.871400	33.679460	944.043150	-308.406950	171.268200	469.801570	-391.089200	171.221920	62.687750	-293.182250	195.748230	57.918900	-241.515060	133.559200	80.219740	-449.807310	110.773270	31.930150	-211.034560	149.383350	82.311500	-330.853210	-165.808440	468.280880	-394.813540	-164.786180	72.685060	-289.708070	-198.296260	52.523230	-243.088670	-132.649930	84.684200	-448.381040	-96.229520	32.742570	-204.742280	-150.176150	81.045180	-507.412260	86.469700	1298.777340	-147.845990	-0.097970	1579.919070	-224.617980	3.081780	1697.085940	-349.869810	14.159500	1668.345580	-331.865260	219.530590	1431.544800	-525.416630	337.890630	1190.217650	-638.950070	355.799960	954.160830	-365.316560	-186.541810	1431.861940	-576.662350	-274.089690	1193.621830	-700.340760	-287.825990	955.502500	-242.586320	112.079540	635.883180	-262.802890	-119.886990	589.220090	-305.668370	96.069950	325.222020	-329.071320	-96.052200	236.514830	-411.580720	80.218290	38.280410	-425.417110	151.671630	36.358860	-405.104580	-72.199290	41.613790	-426.695860	-144.103350	37.745570	-254.901400	172.802610	73.664540	-333.138060	83.702520	62.452360	-352.133150	184.996460	42.782590	-251.468350	-166.617870	72.936120	-335.274810	-84.624530	70.203050	-352.594670	-181.155730	41.005230
1716	14.300000	-307.512390	152.161590	949.892760	-336.139310	-135.479310	951.416080	-544.382450	34.506570	943.624390	-307.617280	171.186280	469.829770	-390.909610	171.293090	62.647090	-292.835140	195.099170	57.850610	-241.377900	132.654710	80.128660	-449.892880	110.866120	31.921440	-210.843290	148.304960	82.007350	-330.487000	-165.118390	468.560640	-394.245610	-164.656200	72.500610	-288.709990	-197.171310	52.118740	-243.055880	-131.129270	84.296270	-448.429500	-96.294850	32.599830	-204.160870	-148.344420	80.702700	-507.758820	87.457980	1297.887450	-148.786130	0.674950	1580.837650	-226.037660	4.389410	1697.716550	-351.107940	15.150980	1668.436160	-332.422970	220.896440	1429.618770	-518.737790	337.931640	1181.953130	-625.803040	353.722660	942.875310	-365.892580	-186.225170	1430.585940	-571.805300	-273.905300	1186.273440	-688.809750	-286.307890	944.834470	-242.317260	111.742650	636.176640	-262.463840	-119.333370	589.160280	-305.653230	95.821580	325.126650	-329.172000	-95.522470	236.339340	-411.660920	80.150960	38.219060	-425.282290	151.662450	36.339810	-405.539520	-71.967830	41.663410	-426.555210	-144.007030	37.768400	-254.309020	171.780380	73.039960	-332.992070	83.510250	62.415160	-351.812900	184.744600	42.689080	-250.825930	-164.991560	72.558430	-335.564820	-83.902810	70.134440	-352.492680	-180.701520	40.985960
1717	14.308333	-306.566830	152.860380	950.275700	-335.553560	-134.727250	951.569520	-543.546510	35.303850	943.189210	-306.438900	170.770140	469.665920	-390.847050	171.297620	62.657030	-292.476260	194.673950	57.714690	-241.275240	132.111210	80.177140	-449.970120	110.921090	31.927350	-210.565170	147.655460	82.062020	-330.373690	-164.628910	468.806520	-393.870940	-164.425350	72.368060	-288.222780	-196.055730	52.097380	-242.989010	-129.508000	84.064440	-448.688230	-96.249980	32.618840	-203.489440	-146.206050	79.989470	-508.291720	87.887990	1296.932500	-150.689790	1.542380	1581.849370	-227.837420	5.339710	1698.290280	-352.473850	16.239390	1668.670040	-333.258790	222.198360	1428.635990	-511.568850	338.021970	1173.908200	-612.035030	351.021510	931.401060	-366.530580	-186.539870	1429.485960	-566.038570	-273.956270	1178.933470	-674.893680	-283.984800	933.686710	-241.952610	111.619920	636.434810	-262.382840	-118.891850	588.369870	-305.737210	95.622290	325.136470	-328.912320	-94.855440	236.149670	-411.886170	80.153110	38.294140	-425.197630	151.644100	36.258930	-405.881710	-71.796180	41.654560	-426.420140	-143.943190	37.845820	-254.104690	171.417540	73.147640	-332.931490	83.267980	62.462580	-351.423190	184.515900	42.540760	-250.133960	-164.137370	72.142620	-335.891420	-83.269950	69.969790	-352.085210	-180.110890	40.999360
